<?xml version="1.0" encoding="UTF-8"?>
<svg width="26px" height="16px" viewBox="0 0 26 16" version="1.1" xmlns="http://www.w3.org/2000/svg" xmlns:xlink="http://www.w3.org/1999/xlink">
    <!-- Generator: Sketch 47.1 (45422) - http://www.bohemiancoding.com/sketch -->
    <title>ic_remove_from_queue_24px</title>
    <desc>Created with Sketch.</desc>
    <defs></defs>
    <g id="mock" stroke="none" stroke-width="1" fill="none" fill-rule="evenodd">
        <g id="Artboard-Copy-7" transform="translate(-346.000000, -30.000000)" fill="#C5D3DA">
            <g id="ic_remove_from_queue_24px" transform="translate(346.000000, 30.000000)">
                <polygon id="Triangle" transform="translate(9.880000, 6.760000) rotate(90.000000) translate(-9.880000, -6.760000) " points="9.88 4.16 12.48 9.36 7.28 9.36"></polygon>
                <g id="Group-2" transform="translate(20.800000, 4.160000)">
                    <rect id="Rectangle-7" x="0" y="0" width="1.56" height="5.2"></rect>
                    <rect id="Rectangle-7-Copy" x="3.12" y="0" width="1.56" height="5.2"></rect>
                </g>
                <path d="M16.0727273,0 L1.60727273,0 C0.715236364,0 0,0.771333333 0,1.73333333 L0,12.1333333 C0,13.0866667 0.715236364,13.8666667 1.60727273,13.8666667 L5.62545455,13.8666667 L5.62545455,15.6 L12.0545455,15.6 L12.0545455,13.8666667 L16.0727273,13.8666667 C16.9567273,13.8666667 17.6719636,13.0866667 17.6719636,12.1333333 L17.68,1.73333333 C17.68,0.771333333 16.9567273,0 16.0727273,0 Z M16.0727273,12.1333333 L1.60727273,12.1333333 L1.60727273,1.73333333 L16.0727273,1.73333333 L16.0727273,12.1333333 Z" id="Shape" fill-rule="nonzero"></path>
            </g>
        </g>
    </g>
</svg>