<?xml version="1.0" encoding="UTF-8"?>
<svg width="16px" height="16px" viewBox="0 0 16 16" version="1.1" xmlns="http://www.w3.org/2000/svg" xmlns:xlink="http://www.w3.org/1999/xlink">
    <!-- Generator: Sketch 49.1 (51147) - http://www.bohemiancoding.com/sketch -->
    <title>Group</title>
    <desc>Created with Sketch.</desc>
    <defs></defs>
    <g id="mock" stroke="none" stroke-width="1" fill="none" fill-rule="evenodd">
        <g id="Tarefas-entregues" transform="translate(-380.000000, -29.000000)">
            <g id="Group" transform="translate(375.000000, 24.000000)">
                <rect id="Rectangle-13" x="0" y="0" width="26" height="26"></rect>
                <path d="M13,17 C10.7777778,17 9,15.2465753 9,13.0547945 C9,10.8630137 10.7777778,9 13,9 C15.2222222,9 17,10.7534247 17,12.9452055 C17,15.1369863 15.1111111,17 13,17 L13,17 Z M19.1187173,13.776699 L19.1187173,13 L19.1187173,12.223301 L20.7766923,10.9805825 C20.9345947,10.8252427 21.0924971,10.592233 20.9345947,10.4368932 L19.2766197,7.6407767 C19.1187173,7.5631068 18.9608149,7.40776699 18.7239613,7.5631068 L16.6712304,8.33980583 C16.2764744,8.10679612 15.7238161,7.7184466 15.2501089,7.5631068 L15.0922066,5.38834951 C15.0922066,5.15533981 14.855353,5 14.6974506,5 L11.4604518,5 C11.2235982,5 11.0656958,5.15533981 11.0656958,5.38834951 L10.8288422,7.5631068 C10.1972327,7.7184466 9.80247677,7.95145631 9.24981843,8.33980583 L7.27603866,7.40776699 C7.19708746,7.25242718 6.8812827,7.40776699 6.80233151,7.5631068 L5.06540531,10.3592233 C4.90750293,10.5145631 5.06540531,10.7475728 5.22330769,10.9029126 L6.8812827,12.1456311 L6.8812827,12.9223301 L6.8812827,13.6990291 L5.22330769,14.9417476 C5.06540531,15.0970874 4.98645412,15.3300971 5.06540531,15.4854369 L6.72338032,18.2815534 C6.8812827,18.4368932 6.96023389,18.5145631 7.27603866,18.4368932 L9.32876962,17.6601942 C9.72352557,18.0485437 10.2761839,18.2815534 10.7498911,18.4368932 L10.9867446,20.6116505 C10.9867446,20.8446602 11.2235982,21 11.3815006,21 L14.6184994,21 C14.855353,21 15.0132554,20.8446602 15.0132554,20.6116505 L15.2501089,18.4368932 C15.8027673,18.2038835 16.1975232,17.8932039 16.6712304,17.6601942 L18.7239613,18.4368932 C18.8818637,18.592233 19.1187173,18.4368932 19.2766197,18.2815534 L20.9345947,15.4854369 C21.0924971,15.3300971 20.9345947,15.0970874 20.7766923,14.9417476 L19.1187173,13.776699 Z" id="Shape" fill="#A0B3BE" fill-rule="nonzero"></path>
            </g>
        </g>
    </g>
</svg>