<?xml version="1.0" encoding="UTF-8"?>
<svg width="12px" height="13px" viewBox="0 0 12 13" version="1.1" xmlns="http://www.w3.org/2000/svg" xmlns:xlink="http://www.w3.org/1999/xlink">
    <!-- Generator: Sketch 47.1 (45422) - http://www.bohemiancoding.com/sketch -->
    <title>Fill 3 Copy 2</title>
    <desc>Created with Sketch.</desc>
    <defs></defs>
    <g id="Page-1" stroke="none" stroke-width="1" fill="none" fill-rule="evenodd">
        <path d="M5.9649131,5.72176089 C6.11529555,5.07623213 6.25353793,4.47217609 6.33746579,3.96439849 C6.48960258,3.04757783 6.52658417,2.41068045 6.4825852,1.78023906 C6.50602325,1.78023906 6.52904026,1.78023906 6.552759,1.78023906 C8.11124886,1.78023906 8.96856214,2.43397815 8.96856214,3.53023321 C8.96856214,4.97272578 7.51406985,5.70295432 5.9649131,5.72176089 Z M11.1724404,9.53002269 C10.8899909,9.895558 10.4690884,10.2594793 9.97260883,10.2594793 C9.01298215,10.2594793 8.18570326,8.79775912 8.0420575,6.81205118 C9.87036561,6.46749784 11.4631705,5.20570279 11.4631705,3.26125705 C11.4631705,1.65483848 9.80573554,0 6.80629693,0 C3.12631283,0 0,1.99826905 0,4.50094735 C0,5.38366354 0.460831326,6.19143412 1.24670768,6.19143412 C1.70185493,6.19143412 2.17061589,6.01206989 2.47404739,5.58457112 C2.26696452,5.18493135 2.1510374,4.86774578 2.1759491,4.39898482 C2.22036911,3.55963603 3.20743374,2.65369231 4.11892119,2.21440434 C4.13421908,3.6954925 3.90987345,4.82374681 3.54405745,6.53626816 C3.15129471,8.37713738 2.63509626,9.95604781 2.63509626,11.2660523 C2.63509626,11.8244252 2.89579191,12.4905148 3.55788169,12.4905148 C4.26102313,12.4905148 4.87602629,12.0797174 5.27580641,11.6245702 C5.17230006,10.8177119 5.15861617,9.90096138 5.40668055,8.37012 C5.49495918,7.82767655 5.61299151,7.26404061 5.73755,6.710229 C5.96175528,9.13052326 6.95008304,12.4592875 9.31094009,12.4592875 C10.7379944,12.4592875 12,11.5778344 12,10.4196861 C12,9.893944 11.6687095,9.46826975 11.1724404,9.53002269 L11.1724404,9.53002269 Z" id="Fill-3-Copy-2" fill="#DB3B33"></path>
    </g>
</svg>