<?xml version="1.0" encoding="UTF-8"?>
<svg width="21px" height="26px" viewBox="0 0 21 26" version="1.1" xmlns="http://www.w3.org/2000/svg" xmlns:xlink="http://www.w3.org/1999/xlink">
    <!-- Generator: Sketch 47.1 (45422) - http://www.bohemiancoding.com/sketch -->
    <title>Combined Shape</title>
    <desc>Created with Sketch.</desc>
    <defs></defs>
    <g id="Page-1" stroke="none" stroke-width="1" fill="none" fill-rule="evenodd">
        <path d="M10.1850675,4.82545249 L10.1850675,4.82545249 C10.1763015,4.82542471 10.1675322,4.82541081 10.1587596,4.82541081 C5.6703372,4.82541081 2.03175192,8.46399609 2.03175192,12.9524185 C2.03175192,15.2083305 2.95090831,17.2495619 4.43514665,18.7220385 L2.99847194,20.1587132 C1.14656302,18.3185539 0,15.7693832 0,12.9524185 C0,7.34189049 4.5482316,2.79365889 10.1587596,2.79365889 C10.2149638,2.79365889 10.2710614,2.79411532 10.3270488,2.79502467 L10.522496,0 L14.2926457,4.33706105 L9.9555846,8.1072107 L10.1850675,4.82545249 Z M10.2028339,21.1745475 L10.2028339,21.1745475 C10.2116,21.1745753 10.2203693,21.1745892 10.2291418,21.1745892 C14.7175642,21.1745892 18.3561495,17.5360039 18.3561495,13.0475815 C18.3561495,10.7916695 17.4369931,8.75043805 15.9527548,7.27796148 L17.3894295,5.84128677 C19.2413384,7.68144614 20.3879014,10.2306168 20.3879014,13.0475815 C20.3879014,18.6581095 15.8396698,23.2063411 10.2291418,23.2063411 C10.1729376,23.2063411 10.11684,23.2058847 10.0608526,23.2049753 L9.86540541,26 L6.09525576,21.662939 L10.4323168,17.8927893 L10.2028339,21.1745475 Z" id="Combined-Shape" fill="#000000"></path>
    </g>
</svg>