<?xml version="1.0" encoding="UTF-8"?>
<svg width="26px" height="26px" viewBox="0 0 26 26" version="1.1" xmlns="http://www.w3.org/2000/svg" xmlns:xlink="http://www.w3.org/1999/xlink">
    <!-- Generator: Sketch 47.1 (45422) - http://www.bohemiancoding.com/sketch -->
    <title>icons /colors /rr</title>
    <desc>Created with Sketch.</desc>
    <defs>
        <path d="M15.86,9.88 C15.86,8.71 14.95,7.93 13.26,7.93 L13.13,7.93 C13.13,8.58 13.13,9.36 13,10.27 C12.87,10.79 12.74,11.44 12.61,12.22 C14.3,12.35 15.86,11.44 15.86,9.88 Z M13,0 C5.85,0 0,5.85 0,13 C0,20.15 5.85,26 13,26 C20.15,26 26,20.15 26,13 C26,5.85 20.15,0 13,0 Z M15.99,18.98 C13.65,18.98 12.74,15.73 12.48,13.26 C12.35,13.91 12.22,14.3 12.09,14.95 C11.83,16.51 11.83,17.29 11.96,18.2 C11.57,18.72 11.05,18.98 10.27,18.98 C9.62,18.98 9.36,18.33 9.36,17.81 C9.36,16.51 9.88,14.95 10.27,13.13 C10.66,11.44 10.92,10.27 10.92,8.84 C10.01,9.36 8.97,10.14 8.97,10.92 C8.97,11.44 9.1,11.7 9.23,12.09 C8.84,12.61 8.58,12.74 8.06,12.74 C7.28,12.74 6.89,11.96 6.89,11.05 C6.89,8.58 10.01,6.5 13.65,6.5 C16.64,6.5 18.2,8.19 18.2,9.75 C18.2,11.7 16.64,13 14.82,13.26 C14.95,15.21 15.73,16.64 16.77,16.64 C17.29,16.64 17.68,16.25 17.94,15.99 C18.46,15.86 18.72,16.38 18.72,16.77 C18.59,18.2 17.42,18.98 15.99,18.98 L15.99,18.98 Z" id="path-1"></path>
    </defs>
    <g id="mock" stroke="none" stroke-width="1" fill="none" fill-rule="evenodd">
        <g id="Artboard-Copy-7" transform="translate(-24.000000, -23.000000)">
            <g id="icons-/colors-/rr" transform="translate(21.000000, 20.000000)">
                <g id="colors-/icons-/red:normal" transform="translate(3.000000, 3.000000)">
                    <mask id="mask-2" fill="white">
                        <use xlink:href="#path-1"></use>
                    </mask>
                    <use id="Mask" fill="#000000" fill-rule="nonzero" xlink:href="#path-1"></use>
                    <g mask="url(#mask-2)" id="Rectangle-5" fill="#E54241">
                        <g transform="translate(-3.000000, -3.000000)">
                            <rect x="0" y="0" width="32" height="32"></rect>
                        </g>
                    </g>
                </g>
            </g>
        </g>
    </g>
</svg>