<?xml version="1.0" encoding="UTF-8"?>
<svg width="360px" height="360px" viewBox="0 0 360 360" version="1.1" xmlns="http://www.w3.org/2000/svg" xmlns:xlink="http://www.w3.org/1999/xlink">
    <!-- Generator: Sketch 47.1 (45422) - http://www.bohemiancoding.com/sketch -->
    <title>rr</title>
    <desc>Created with Sketch.</desc>
    <defs></defs>
    <g id="mock" stroke="none" stroke-width="1" fill="none" fill-rule="evenodd">
        <g id="rr">
            <g id="Group-5">
                <circle id="Oval-2" fill="#DB3B33" cx="180" cy="180" r="180"></circle>
                <g id="R_square_red" transform="translate(89.000000, 89.000000)" fill="#FFFFFE">
                    <path d="M85.221,82.424 C87.364,73.225 89.334,64.617 90.53,57.381 C92.698,44.316 93.225,35.24 92.598,26.256 C92.932,26.256 93.26,26.256 93.598,26.256 C115.807,26.256 128.024,35.572 128.024,51.194 C128.024,71.75 107.297,82.156 85.221,82.424 Z M142.332,147.088 C128.657,147.088 116.868,126.258 114.821,97.961 C140.875,93.051 163.573,75.07 163.573,47.361 C163.573,24.469 139.954,0.887 97.211,0.887 C44.77,0.887 0.219,29.363 0.219,65.027 C0.219,77.606 6.786,89.117 17.985,89.117 C24.471,89.117 31.151,86.561 35.475,80.469 C32.524,74.774 30.872,70.254 31.227,63.574 C31.86,51.613 45.926,38.703 58.915,32.443 C59.133,53.549 55.936,69.627 50.723,94.031 C45.126,120.264 37.77,142.764 37.77,161.432 C37.77,169.389 41.485,178.881 50.92,178.881 C60.94,178.881 69.704,173.027 75.401,166.541 C73.926,155.043 73.731,141.979 77.266,120.164 C78.524,112.434 80.206,104.402 81.981,96.51 C85.176,131 99.26,178.436 132.903,178.436 C153.239,178.436 171.223,165.875 171.223,149.371 C171.223,141.879 166.502,135.813 159.43,136.693 C155.405,141.902 149.407,147.088 142.332,147.088 Z" id="Fill-3"></path>
                </g>
            </g>
        </g>
    </g>
</svg>