<?xml version="1.0" encoding="UTF-8"?>
<svg width="6px" height="24px" viewBox="0 0 6 24" version="1.1" xmlns="http://www.w3.org/2000/svg" xmlns:xlink="http://www.w3.org/1999/xlink">
    <!-- Generator: Sketch 47.1 (45422) - http://www.bohemiancoding.com/sketch -->
    <title>Shape</title>
    <desc>Created with Sketch.</desc>
    <defs></defs>
    <g id="Page-1" stroke="none" stroke-width="1" fill="none" fill-rule="evenodd">
        <path d="M3,6 C4.66,6 6,4.66 6,3 C6,1.34 4.66,0 3,0 C1.34,0 0,1.34 0,3 C0,4.66 1.34,6 3,6 Z M3,9 C1.34,9 0,10.34 0,12 C0,13.66 1.34,15 3,15 C4.66,15 6,13.66 6,12 C6,10.34 4.66,9 3,9 Z M3,18 C1.34,18 0,19.34 0,21 C0,22.66 1.34,24 3,24 C4.66,24 6,22.66 6,21 C6,19.34 4.66,18 3,18 Z" id="Shape" fill="#000000" fill-rule="nonzero"></path>
    </g>
</svg>