<?xml version="1.0" encoding="UTF-8"?>
<svg width="120px" height="25px" viewBox="0 0 120 25" version="1.1" xmlns="http://www.w3.org/2000/svg" xmlns:xlink="http://www.w3.org/1999/xlink">
    <!-- Generator: Sketch 47.1 (45422) - http://www.bohemiancoding.com/sketch -->
    <title>Group</title>
    <desc>Created with Sketch.</desc>
    <defs></defs>
    <g id="Page-1" stroke="none" stroke-width="1" fill="none" fill-rule="evenodd">
        <g id="Group" fill-rule="nonzero" fill="#E7403B">
            <path d="M89.325,7.5 C87.675,7.5 85.725,9.075 84.525,10.65 C85.05,8.4 84.075,7.575 82.95,7.575 C82.05,7.65 81.15,7.875 80.325,8.325 C80.175,10.95 79.8,13.65 79.275,16.275 C79.2,16.8 79.125,17.325 79.05,17.775 C78.525,18.375 77.775,18.675 77.025,18.825 C76.2,18.825 75.9,18.15 75.9,17.325 C75.9,15.6 77.025,12.375 77.025,9.9 C77.025,8.4 76.2,7.65 74.85,7.65 C74.025,7.65 73.2,7.8 72.375,7.95 C72.525,10.2 72.3,12.45 71.775,14.625 C71.25,16.575 70.425,18.225 69.45,18.225 C68.775,18.225 68.475,17.775 68.475,17.1 C68.475,16.05 69.525,11.625 69.525,9.6 C69.525,7.575 68.025,7.65 67.35,7.65 C66.45,7.65 65.55,7.875 64.8,8.25 C65.25,10.35 63.975,15.45 63.975,17.475 C63.975,17.55 63.975,17.625 63.975,17.7 C63.375,18.375 62.625,18.75 61.8,18.9 C61.05,18.9 60.9,18.375 60.9,17.7 C60.9,16.05 62.1,12.975 62.1,11.1 C62.175,10.275 61.725,9.525 61.05,9.15 C59.925,8.55 57.675,8.175 56.325,7.875 C56.325,6.525 55.875,5.25 54.375,5.25 C52.65,5.25 51.9,6.975 51.9,8.55 C51.9,9.6 52.35,10.65 53.175,11.25 C52.875,12.45 52.5,13.65 52.125,14.85 C51.375,16.875 50.475,18.975 49.5,18.975 C49.05,18.975 48.825,18.6 48.825,18 C48.825,16.2 50.1,12.975 50.1,10.725 C50.1,8.475 48.75,7.5 47.175,7.5 C45.6,7.5 43.575,9.075 42.375,10.65 C42.9,8.4 41.925,7.575 40.8,7.575 C39.9,7.65 39,7.875 38.175,8.325 C38.025,10.95 37.65,13.65 37.125,16.275 C37.05,16.725 36.975,17.175 36.975,17.625 C36.45,18.225 35.775,18.6 35.025,18.675 C34.2,18.675 33.9,17.925 33.9,17.175 C33.9,15.45 34.95,12.3 34.95,9.9 C34.95,8.4 34.2,7.575 32.775,7.575 C31.95,7.575 31.05,7.725 30.225,7.875 C30.375,10.125 30.15,12.45 29.625,14.625 C29.1,16.575 28.2,18.15 27.3,18.15 C26.625,18.15 26.325,17.7 26.325,16.95 C26.325,15.9 27.375,11.475 27.375,9.45 C27.375,7.5 25.875,7.5 25.2,7.5 C24.375,7.575 23.55,7.8 22.8,8.25 C23.025,10.5 21.825,15.525 21.825,17.55 C21.825,17.7 21.825,17.775 21.825,17.925 C21.225,18.975 20.1,19.725 18.825,19.8 C16.95,19.8 15.375,16.875 15.075,13.05 C18.6,12.375 21.6,9.975 21.6,6.3 C21.6,3.225 18.45,0.075 12.675,0.075 C5.7,1.08246745e-15 0,3.825 0,8.55 C0,10.2 0.9,11.775 2.4,11.775 C3.3,11.775 4.2,11.4 4.725,10.65 C4.35,9.975 4.2,9.15 4.2,8.4 C4.275,6.75 5.7,5.175 7.5,4.35 C7.425,7.125 7.05,9.825 6.375,12.45 C5.625,15.975 4.65,19.125 4.65,21.6 C4.65,22.65 5.175,23.925 6.375,23.925 C7.65,23.85 8.85,23.25 9.675,22.275 C9.45,20.175 9.525,18 9.9,15.9 C10.05,14.85 10.275,13.8 10.5,12.75 C10.95,17.4 12.975,24 16.875,24 C19.2,24 21.225,22.125 22.5,20.55 C22.95,21.6 24,22.275 25.125,22.275 C27,22.275 28.725,20.775 29.625,18.975 C30,20.625 30.825,22.125 32.625,22.125 C34.125,22.05 35.625,21.375 36.6,20.25 C36.6,20.4 36.6,20.55 36.6,20.7 C36.675,21.45 36.825,21.975 37.65,22.2 C38.85,22.425 40.05,22.275 41.1,21.825 C41.025,19.35 41.4,16.95 42.15,14.55 C42.825,12.825 43.95,11.55 44.625,11.55 C45.15,11.55 45.3,11.925 45.3,12.525 C45.3,13.125 44.325,16.575 44.325,18.675 C44.175,20.55 45.675,22.2 47.55,22.35 C47.7,22.35 47.85,22.35 48,22.35 C51.525,22.35 52.725,19.875 53.85,17.175 C54.525,15.45 55.125,13.725 55.575,11.925 C56.7,12.15 57.225,12.3 57.225,13.275 C57.225,14.625 56.4,16.5 56.4,18.75 C56.4,21 57.6,22.425 59.925,22.425 C61.65,22.425 63.225,21.225 64.35,20.1 C64.875,21.375 65.775,22.35 67.2,22.35 C69.3,22.35 70.875,20.775 71.85,18.975 C72.225,20.625 72.9,22.35 74.7,22.35 C76.275,22.275 77.7,21.6 78.825,20.475 C78.825,20.625 78.825,20.7 78.825,20.85 C78.9,21.6 79.05,22.125 79.875,22.35 C81.075,22.575 82.275,22.425 83.325,21.975 C83.25,19.5 83.625,17.1 84.375,14.7 C85.05,12.975 86.1,11.7 86.775,11.7 C87.3,11.7 87.45,12.075 87.45,12.675 C87.45,14.475 86.1,19.425 86.325,21.975 C86.4,23.175 87.375,24.075 88.575,24.075 C89.775,23.925 90.9,23.325 91.575,22.425 C91.125,21.6 90.9,20.7 90.975,19.8 C90.975,17.325 92.025,12.975 92.025,10.725 C92.175,8.325 90.975,7.5 89.325,7.5 Z M11.025,10.95 L11.025,10.95 C11.325,9.675 11.625,8.55 11.775,7.575 C12,6.225 12.075,4.875 12,3.525 L12.15,3.525 C14.925,3.525 16.725,4.65 16.725,6.75 C16.65,9.45 13.95,10.875 11.025,10.95 Z" id="Shape"></path>
            <circle id="Oval" cx="103.2" cy="2.85" r="2.775"></circle>
            <path d="M118.95,7.425 L118.95,7.425 C117.75,7.875 116.4,7.95 115.125,7.875 L113.925,7.8 C114.075,6.9 114.15,6 114.15,5.1 C114.225,3.9 113.325,2.85 112.2,2.775 C112.125,2.775 112.125,2.775 112.05,2.775 C111.075,2.775 110.1,3 109.2,3.375 C109.425,4.8 109.425,6.225 109.275,7.575 C108.15,7.575 107.475,7.65 107.025,8.175 C106.65,8.85 106.5,9.6 106.8,10.35 C107.55,10.275 108.3,10.2 109.05,10.2 C108.975,10.8 108.9,11.325 108.75,11.85 C108.375,13.725 108.15,15.525 108,16.95 C107.25,17.85 106.2,18.825 105.3,18.825 C104.55,18.825 104.175,18.375 104.175,17.475 C104.175,16.2 105.3,11.55 105.3,9.825 C105.3,8.625 104.4,7.65 103.2,7.575 C103.05,7.575 102.975,7.575 102.825,7.575 C102,7.575 101.175,7.725 100.5,8.025 C100.575,9.075 100.575,10.2 100.425,11.25 C100.05,13.65 99.75,16.125 99.6,18.6 C99.6,20.775 100.725,22.35 102.975,22.35 C104.85,22.35 106.725,21.15 108.075,19.8 C108.525,21.525 109.8,22.8 112.125,22.8 C114.9,22.8 117.75,20.25 117.75,17.775 C117.75,16.65 117,15.9 115.875,16.35 C115.5,18.225 114.525,19.65 113.475,19.65 C112.575,19.65 112.2,18.975 112.2,17.7 C112.35,15.75 112.65,13.8 113.1,11.925 C113.175,11.475 113.325,10.95 113.4,10.425 C115.35,10.575 116.7,10.65 117.6,10.65 C118.65,10.65 119.475,9.9 119.55,8.925 C119.7,8.4 119.4,7.8 118.95,7.425 Z" id="Shape"></path>
            <circle id="Oval" cx="95.4" cy="19.2" r="2.775"></circle>
        </g>
    </g>
</svg>