<?xml version="1.0" encoding="UTF-8"?>
<svg width="26px" height="26px" viewBox="0 0 26 26" version="1.1" xmlns="http://www.w3.org/2000/svg" xmlns:xlink="http://www.w3.org/1999/xlink">
    <!-- Generator: Sketch 47.1 (45422) - http://www.bohemiancoding.com/sketch -->
    <title>Group 7</title>
    <desc>Created with Sketch.</desc>
    <defs></defs>
    <g id="Page-1" stroke="none" stroke-width="1" fill="none" fill-rule="evenodd">
        <g id="Group-7" fill="#000000">
            <path d="M13,26 C5.82029825,26 0,20.1797017 0,13 C0,5.82029825 5.82029825,0 13,0 C20.1797017,0 26,5.82029825 26,13 C26,20.1797017 20.1797017,26 13,26 Z M11.564,16.374 L14.204,16.374 L14.204,15.538 C14.204,15.2593319 14.2259998,15.021001 14.27,14.823 C14.3140002,14.624999 14.3836662,14.4490008 14.479,14.295 C14.5743338,14.1409992 14.6953326,13.9906674 14.842,13.844 C14.9886674,13.6973326 15.1646656,13.5286676 15.37,13.338 C15.6926683,13.0299985 15.9969986,12.7366681 16.283,12.458 C16.5690014,12.1793319 16.8219989,11.8860015 17.042,11.578 C17.2620011,11.2699985 17.4379993,10.9326685 17.57,10.566 C17.7020007,10.1993315 17.768,9.77400242 17.768,9.29 C17.768,8.60066322 17.6506678,7.98833601 17.416,7.453 C17.1813322,6.91766399 16.8550021,6.47033513 16.437,6.111 C16.0189979,5.75166487 15.5276695,5.47666762 14.963,5.286 C14.3983305,5.09533238 13.7860033,5 13.126,5 C12.4219965,5 11.7766696,5.09899901 11.19,5.297 C10.6033304,5.49500099 10.0863356,5.78466476 9.639,6.166 C9.19166443,6.54733524 8.82866806,7.01299725 8.55,7.563 C8.27133194,8.11300275 8.08800044,8.73999648 8,9.444 L10.816,9.664 C10.874667,9.06266366 11.101998,8.55300209 11.498,8.135 C11.894002,7.71699791 12.3999969,7.508 13.016,7.508 C13.5880029,7.508 14.0609981,7.68766487 14.435,8.047 C14.8090019,8.40633513 14.996,8.87199714 14.996,9.444 C14.996,10.0306696 14.8126685,10.5073315 14.446,10.874 L12.752,12.59 C12.5319989,12.8246678 12.3450008,13.0263325 12.191,13.195 C12.0369992,13.3636675 11.9123338,13.5396658 11.817,13.723 C11.7216662,13.9063343 11.6556668,14.1116655 11.619,14.339 C11.5823332,14.5663345 11.564,14.8413317 11.564,15.164 L11.564,16.374 Z M11.124,19.432 C11.124,19.6666678 11.1716662,19.8866656 11.267,20.092 C11.3623338,20.2973344 11.4906659,20.4733326 11.652,20.62 C11.8133341,20.7666674 12.0003323,20.8839996 12.213,20.972 C12.4256677,21.0600004 12.6493322,21.104 12.884,21.104 C13.3680024,21.104 13.7823316,20.935335 14.127,20.598 C14.4716684,20.260665 14.644,19.8573357 14.644,19.388 C14.644,18.9186643 14.4680018,18.5226683 14.116,18.2 C13.7639982,17.8773317 13.3533357,17.716 12.884,17.716 C12.3999976,17.716 11.9856684,17.884665 11.641,18.222 C11.2963316,18.559335 11.124,18.9626643 11.124,19.432 Z" id="Combined-Shape"></path>
        </g>
    </g>
</svg>