<svg id="Layer_1" data-name="Layer 1" xmlns="http://www.w3.org/2000/svg" xmlns:xlink="http://www.w3.org/1999/xlink" viewBox="0 0 491.78 150.23"><defs><style>.cls-1,.cls-12,.cls-13{fill:none;}.cls-2{fill:#fcfcfc;}.cls-3{fill:#e7eff6;}.cls-4{clip-path:url(#clip-path);}.cls-5{fill:#fccb63;}.cls-6{clip-path:url(#clip-path-2);}.cls-7{fill:#2e3548;}.cls-8{fill:#ffedd9;}.cls-9{fill:#fcd3b6;}.cls-10{fill:#212121;}.cls-11{fill:#ea4a47;}.cls-12{stroke:#d63b34;stroke-width:0.95px;}.cls-12,.cls-13,.cls-20,.cls-21,.cls-22,.cls-23,.cls-24{stroke-miterlimit:10;}.cls-13{stroke:#fff8eb;stroke-width:0.87px;}.cls-14{fill:#c4d3da;}.cls-15{fill:#fff;}.cls-16,.cls-20,.cls-21,.cls-22,.cls-23,.cls-24{fill:#bdcad2;}.cls-17{fill:#f7f8fa;}.cls-18{opacity:0.7;}.cls-19{fill:#7c96a3;}.cls-20,.cls-21,.cls-22,.cls-23,.cls-24{stroke:#bdcad2;}.cls-20{stroke-width:0.32px;}.cls-21{stroke-width:0.38px;}.cls-22{stroke-width:0.59px;}.cls-23{stroke-width:0.51px;}.cls-24{stroke-width:0.48px;}.cls-25{fill:#f06e67;}.cls-26{fill:#425057;}</style><clipPath id="clip-path"><circle class="cls-1" cx="328.98" cy="24.51" r="17.51" transform="translate(-0.84 17.56) rotate(-3.05)"/></clipPath><clipPath id="clip-path-2"><circle class="cls-1" cx="328.98" cy="24.51" r="17.51"/></clipPath></defs><title>tutorial_01</title><rect class="cls-2" width="491.78" height="150.23" rx="8.49" ry="8.49"/><path class="cls-3" d="M0,48.14H491.78a0,0,0,0,1,0,0v93.52a8.57,8.57,0,0,1-8.57,8.57H8.57A8.57,8.57,0,0,1,0,141.65V48.14A0,0,0,0,1,0,48.14Z"/><g class="cls-4"><circle class="cls-5" cx="328.98" cy="24.51" r="20.2" transform="translate(-0.84 17.56) rotate(-3.05)"/></g><g class="cls-6"><path class="cls-7" d="M339.39,57.93h-13.6a8.71,8.71,0,0,1-8.68-8.68V43.6a8.71,8.71,0,0,1,8.68-8.68H332a8.71,8.71,0,0,1,8.68,8.68v13c-.14.72-.58,1.3-1.3,1.3Z"/></g><circle class="cls-8" cx="335.05" cy="26.1" r="2.31"/><circle class="cls-8" cx="322.76" cy="26.1" r="2.31"/><path class="cls-9" d="M329,37.38a2.44,2.44,0,0,1-2.46-2.46v-2.6A2.44,2.44,0,0,1,329,29.86a2.54,2.54,0,0,1,2.46,2.46v2.46a2.57,2.57,0,0,1-2.46,2.6Z"/><path class="cls-8" d="M329,32.9a6.11,6.11,0,0,1-6.08-6.08l-.29-4.92c.14-3.33,3.18-3.18,6.66-3,3,.14,6.8.72,6.94,3.76l-1,4.2A6.34,6.34,0,0,1,329,32.9Z"/><circle class="cls-10" cx="324.93" cy="19.3" r="3.04"/><circle class="cls-10" cx="323.33" cy="17.13" r="3.47"/><circle class="cls-10" cx="328.69" cy="15.97" r="3.47"/><circle class="cls-10" cx="334.18" cy="18.14" r="3.62"/><circle class="cls-10" cx="328.69" cy="17.85" r="3.04"/><circle class="cls-10" cx="333.03" cy="19.3" r="3.04"/><path class="cls-10" d="M322.76,19.59a3.47,3.47,0,1,0,0,6.94Zm12.3,7.09a3.47,3.47,0,1,0,0-6.94Z"/><rect class="cls-11" x="360.07" y="9.54" width="117" height="30.02" rx="5.58" ry="5.58"/><line class="cls-12" x1="449.73" y1="9.54" x2="449.73" y2="39.56"/><polyline class="cls-13" points="459.54 23.6 463.77 27.53 467.98 23.6"/><path class="cls-14" d="M284.16,33.69a1.9,1.9,0,0,1-3.8,0h3.8m-1.9-17.09a1,1,0,0,1,.95.95v1A5.7,5.7,0,0,1,288,24.2v5.7l2.85,2.85H273.72l2.85-2.85V24.2a5.7,5.7,0,0,1,4.75-5.62v-1A1,1,0,0,1,282.26,16.6Z"/><polygon class="cls-14" points="247.53 22.34 249.75 22.34 249.75 25.66 251.97 25.66 251.97 27.88 247.53 27.88 247.53 22.34"/><path class="cls-14" d="M243.2,19.45A8.86,8.86,0,0,1,255.74,32,9.12,9.12,0,0,1,245,33.43l1.66-1.66a6.82,6.82,0,0,0,7.54-1.33,6.66,6.66,0,0,0,0-9.43,6.76,6.76,0,0,0-9.43,0,7.67,7.67,0,0,0-2,5.21h2.77l-3.88,3.33-3.33-3.33h2.22A9.65,9.65,0,0,1,243.2,19.45Z"/><rect class="cls-15" x="266.91" y="44.88" width="119.22" height="98.36" rx="7.11" ry="7.11"/><path class="cls-16" d="M379,45.17A6.84,6.84,0,0,1,385.83,52v84.13a6.84,6.84,0,0,1-6.82,6.82H274a6.84,6.84,0,0,1-6.82-6.82V52A6.84,6.84,0,0,1,274,45.17H379m0-.59H274A7.42,7.42,0,0,0,266.61,52v84.13a7.42,7.42,0,0,0,7.41,7.41H379a7.42,7.42,0,0,0,7.41-7.41V52A7.42,7.42,0,0,0,379,44.58Z"/><path class="cls-17" d="M385.83,52A6.84,6.84,0,0,0,379,45.17H274A6.84,6.84,0,0,0,267.21,52V71.77H385.83Z"/><g class="cls-18"><path class="cls-19" d="M276.64,85.25a1.15,1.15,0,0,1-1.14-1.05h-2a.44.44,0,0,1-.31-.76l.92-.92V80.59a2.55,2.55,0,0,1,1.76-2.43v0a.8.8,0,0,1,1.59,0v0a2.55,2.55,0,0,1,1.76,2.43v1.93l.92.92a.44.44,0,0,1-.31.76h-2A1.15,1.15,0,0,1,276.64,85.25Zm-2.09-1.94h4.18l-.29-.3a.44.44,0,0,1-.13-.31V80.59a1.66,1.66,0,0,0-1.39-1.64.31.31,0,0,0-.55,0A1.66,1.66,0,0,0,275,80.59V82.7a.44.44,0,0,1-.13.31Zm1.74-4.8h0Z"/><path class="cls-19" d="M276.28,102.7a.41.41,0,0,0-.24-.15h-1.74a.21.21,0,0,0-.19.19s0,.1,0,.1h0l1.6,2.23,1.11-1.6Z"/><path class="cls-19" d="M280.34,102.65a.21.21,0,0,0-.19-.19h-1.79a.41.41,0,0,0-.29.15l-1.79,2.71a2.62,2.62,0,0,1,.92-.15,3.15,3.15,0,0,1,1.26.29l1.89-2.71h0Z"/><path class="cls-19" d="M277.2,105.84a2.23,2.23,0,1,0,2.23,2.23A2.19,2.19,0,0,0,277.2,105.84Zm1.31,2-.68.48s0,0,0,.1l.24.82s0,.15-.1.1l-.68-.48h-.1l-.68.48s-.15,0-.1-.1l.24-.82s0,0,0-.1l-.68-.48s0-.15,0-.15h.87s0,0,0,0l.24-.82s.15,0,.15,0l.24.82a0,0,0,0,0,0,0h.92C278.55,107.68,278.55,107.78,278.5,107.83Z"/><path class="cls-19" d="M279.8,126.39h-5.15a.73.73,0,0,0-.74.74v1.47h.74v-1.47h5.15v5.15h-5.15V130.8h-.74v1.47a.74.74,0,0,0,.74.74h5.15a.74.74,0,0,0,.74-.74v-5.15a.74.74,0,0,0-.74-.74M276.52,131l.52.52,1.84-1.84L277,127.86l-.52.52,1,1h-3.56v.74h3.56Z"/><path class="cls-19" d="M277.22,56.52a1.6,1.6,0,1,1-1.6,1.6,1.6,1.6,0,0,1,1.6-1.6m0,4c1.77,0,3.21.72,3.21,1.6v.8H274v-.8C274,61.24,275.45,60.53,277.22,60.53Z"/></g><rect class="cls-20" x="292.01" y="56.52" width="22.1" height="6.33" rx="3.17" ry="3.17"/><rect class="cls-21" x="319.52" y="56.52" width="30.14" height="6.33" rx="3.17" ry="3.17"/><rect class="cls-22" x="292.01" y="78.55" width="74.8" height="6.26" rx="3.13" ry="3.13"/><rect class="cls-23" x="292.01" y="102.46" width="53.09" height="6.52" rx="3.26" ry="3.26"/><rect class="cls-24" x="292.01" y="126.39" width="45.79" height="6.75" rx="3.37" ry="3.37"/><rect class="cls-25" x="371.99" y="21.76" width="68.58" height="5.88" rx="2.9" ry="2.9"/><polygon class="cls-26" points="363.63 70.67 353.13 61.38 354.44 75.33 357.76 73.65 360.99 79.91 363.55 78.61 360.31 72.35 363.63 70.67"/></svg>