<?xml version="1.0" encoding="utf-8"?>
<!-- Generator: Adobe Illustrator 21.1.0, SVG Export Plug-In . SVG Version: 6.00 Build 0)  -->
<svg version="1.1" id="Layer_1" xmlns="http://www.w3.org/2000/svg" xmlns:xlink="http://www.w3.org/1999/xlink" x="0px" y="0px"
	 viewBox="0 0 491.8 150.2" style="enable-background:new 0 0 491.8 150.2;" xml:space="preserve">
<style type="text/css">
	.st0{fill:#F7F8FA;}
	.st1{fill:#FFFFFF;stroke:#C4D3DA;stroke-width:1.19;stroke-miterlimit:10;}
	.st2{fill:#93A8B2;}
	.st3{opacity:0.63;fill:#FFFFFF;stroke:#C4D3DA;stroke-width:1.19;stroke-miterlimit:10;}
	.st4{opacity:0.5;fill:#93A8B2;}
	.st5{fill:#F06E67;}
	.st6{fill:#425057;}
</style>
<path class="st0" d="M8.7,0H483c4.8,0,8.7,3.9,8.7,8.7v132.7c0,4.8-3.9,8.7-8.7,8.7H8.7c-4.8,0-8.7-3.9-8.7-8.7V8.7
	C0,3.9,3.9,0,8.7,0z"/>
<path class="st1" d="M32.3,40.8h429.4c1.8,0,3.2,1.5,3.2,3.2v17.9c0,1.8-1.5,3.2-3.2,3.2H32.3c-1.8,0-3.2-1.5-3.2-3.2V44
	C29,42.2,30.5,40.8,32.3,40.8z"/>
<path class="st2" d="M36.8,31.8L35.7,29h-3.4l-1,2.7h-1l3.4-8.6h0.8l3.4,8.6L36.8,31.8z M35.4,28.1l-1-2.6c-0.1-0.3-0.3-0.7-0.4-1.2
	c-0.1,0.4-0.2,0.8-0.4,1.2l-1,2.6H35.4z"/>
<path class="st2" d="M41.8,31.9c-0.4,0-0.8-0.1-1.2-0.2c-0.3-0.2-0.6-0.4-0.9-0.7h-0.1c0,0.4,0.1,0.7,0.1,1.1v2.6h-1v-9.3h0.8
	l0.1,0.9l0,0c0.2-0.3,0.5-0.6,0.9-0.8c0.4-0.2,0.7-0.2,1.1-0.2c0.8-0.1,1.5,0.3,2,0.9c0.5,0.7,0.7,1.6,0.7,2.5
	c0.1,0.9-0.2,1.7-0.6,2.4C43.3,31.6,42.6,31.9,41.8,31.9z M41.7,26c-0.5-0.1-1.1,0.1-1.4,0.5c-0.3,0.5-0.5,1.1-0.5,1.7v0.2
	c-0.1,0.7,0.1,1.4,0.5,1.9c0.4,0.4,0.9,0.6,1.5,0.6c0.5,0,1-0.2,1.3-0.7c0.3-0.6,0.5-1.2,0.5-1.9c0-0.7-0.1-1.3-0.5-1.8
	C42.7,26.3,42.2,26,41.7,26z"/>
<path class="st2" d="M49.2,31.9c-0.4,0-0.8-0.1-1.2-0.2c-0.3-0.2-0.6-0.4-0.9-0.7H47c0.1,0.4,0.1,0.7,0.1,1.1v2.6h-1v-9.3H47
	l0.1,0.9l0,0c0.2-0.3,0.5-0.6,0.9-0.8c0.4-0.2,0.7-0.2,1.1-0.2c0.8-0.1,1.5,0.3,2,0.9c0.5,0.7,0.7,1.6,0.7,2.5
	c0.1,0.9-0.2,1.7-0.7,2.4C50.7,31.6,49.9,31.9,49.2,31.9z M49,26c-0.5-0.1-1.1,0.1-1.4,0.5c-0.3,0.5-0.5,1.1-0.5,1.7v0.2
	c-0.1,0.7,0.1,1.4,0.5,1.9c0.4,0.4,0.9,0.6,1.5,0.6c0.5,0,1-0.2,1.3-0.7c0.3-0.6,0.5-1.2,0.5-1.9c0-0.6-0.1-1.3-0.5-1.8
	C50.1,26.3,49.6,26,49,26z"/>
<path class="st2" d="M63,31.8h-1.2l-3.1-4.1l-0.9,0.8v3.4h-1v-8.6h1v4.3l3.9-4.3h1.2L59.4,27L63,31.8z"/>
<path class="st2" d="M66.8,31.9c-0.8,0-1.7-0.3-2.2-0.9c-0.6-0.7-0.9-1.5-0.8-2.4c0-0.9,0.2-1.8,0.8-2.5c0.5-0.6,1.3-0.9,2.1-0.9
	c0.7,0,1.4,0.3,1.9,0.8c0.5,0.6,0.7,1.3,0.7,2.1v0.6h-4.4c0,0.6,0.2,1.2,0.6,1.7c0.4,0.4,1,0.6,1.5,0.6c0.7,0,1.4-0.1,2.1-0.4v0.9
	c-0.3,0.1-0.7,0.2-1,0.3C67.5,31.8,67.1,31.9,66.8,31.9z M66.5,26c-0.5,0-0.9,0.2-1.2,0.5c-0.3,0.4-0.5,0.9-0.5,1.4h3.4
	c0-0.5-0.1-1-0.4-1.4C67.4,26.1,66.9,26,66.5,26z"/>
<path class="st2" d="M69.8,25.3h1l1.4,3.7c0.2,0.6,0.4,1.2,0.6,1.8l0,0c0.1-0.2,0.2-0.5,0.3-1s0.7-2,1.6-4.4h1L73,32.6
	c-0.2,0.6-0.5,1.1-1,1.5c-0.4,0.3-0.9,0.5-1.3,0.5c-0.3,0-0.6,0-0.9-0.1v-0.8c0.2,0,0.5,0.1,0.7,0.1c0.7,0,1.3-0.4,1.5-1.1l0.4-0.9
	L69.8,25.3z"/>
<path class="st3" d="M32.3,95.8h429.4c1.8,0,3.2,1.5,3.2,3.2v17.9c0,1.8-1.5,3.2-3.2,3.2H32.3c-1.8,0-3.2-1.5-3.2-3.2V99
	C29,97.2,30.5,95.8,32.3,95.8z"/>
<path class="st4" d="M37.9,78.2v5.5c0,0.8-0.3,1.7-0.9,2.3c-0.7,0.6-1.5,0.9-2.4,0.8c-0.9,0.1-1.8-0.2-2.4-0.8
	c-0.6-0.6-0.9-1.5-0.9-2.3v-5.5h1v5.6c0,0.6,0.2,1.2,0.6,1.7c0.5,0.4,1.1,0.6,1.7,0.6c0.6,0,1.2-0.2,1.7-0.6c0.4-0.4,0.6-1,0.6-1.7
	v-5.6H37.9z"/>
<path class="st4" d="M44.1,85c0,0.5-0.2,1.1-0.7,1.4c-0.6,0.4-1.2,0.5-1.9,0.5s-1.4-0.1-2-0.4v-0.9c0.3,0.2,0.7,0.3,1,0.4
	s0.7,0.1,1,0.1c0.4,0,0.8-0.1,1.2-0.2c0.4-0.2,0.5-0.8,0.3-1.2c-0.1-0.1-0.1-0.2-0.2-0.2c-0.4-0.3-0.8-0.5-1.3-0.6
	c-0.4-0.1-0.9-0.3-1.3-0.6c-0.2-0.1-0.4-0.3-0.6-0.6c-0.1-0.2-0.2-0.5-0.2-0.8c0-0.5,0.2-1,0.6-1.2c0.5-0.3,1.2-0.5,1.8-0.4
	c0.7,0,1.4,0.1,2,0.4l-0.3,0.8c-0.5-0.3-1.1-0.4-1.8-0.4c-0.3,0-0.7,0.1-1,0.2c-0.2,0.1-0.4,0.4-0.3,0.6c0,0.2,0,0.3,0.1,0.4
	s0.3,0.3,0.4,0.3c0.4,0.2,0.7,0.3,1.1,0.5c0.6,0.2,1.1,0.5,1.5,0.8C44,84.2,44.2,84.6,44.1,85z"/>
<path class="st4" d="M48.4,86.9c-0.8,0-1.7-0.3-2.2-0.9c-0.6-0.7-0.9-1.5-0.8-2.4c0-0.9,0.2-1.8,0.8-2.5c0.5-0.6,1.3-0.9,2-0.9
	s1.4,0.3,1.9,0.8c0.5,0.6,0.7,1.3,0.7,2.1v0.6h-4.4c0,0.6,0.2,1.2,0.6,1.7c0.4,0.4,1,0.6,1.5,0.6c0.7,0,1.4-0.1,2-0.4v0.9
	c-0.3,0.1-0.7,0.2-1,0.3C49.2,86.8,48.8,86.9,48.4,86.9z M48.2,81c-0.5,0-0.9,0.2-1.2,0.5c-0.3,0.4-0.5,0.9-0.5,1.4h3.4
	c0-0.5-0.1-1-0.4-1.4C49.1,81.1,48.6,81,48.2,81z"/>
<path class="st4" d="M55.4,80.2c0.3,0,0.5,0,0.8,0.1L56,81.2c-0.2-0.1-0.5-0.1-0.7-0.1c-0.5,0-1,0.2-1.3,0.6c-0.4,0.4-0.6,1-0.5,1.6
	v3.4h-1v-6.4h0.8l0.1,1.2l0,0c0.2-0.4,0.5-0.7,0.9-1C54.6,80.3,55,80.2,55.4,80.2z"/>
<path class="st4" d="M63.2,86.8h-1v-7.7h-2.7v-0.9H66v0.9h-2.8V86.8z"/>
<path class="st4" d="M72.7,83.5c0.1,0.9-0.2,1.8-0.8,2.5c-0.6,0.6-1.4,0.9-2.2,0.9c-0.5,0-1.1-0.1-1.5-0.4s-0.8-0.7-1-1.2
	c-0.3-0.6-0.4-1.2-0.4-1.8c-0.1-0.9,0.2-1.8,0.8-2.4c0.6-0.6,1.4-0.9,2.2-0.9c0.8,0,1.6,0.3,2.1,0.9C72.4,81.8,72.7,82.7,72.7,83.5z
	 M67.8,83.5c0,0.7,0.1,1.3,0.5,1.9c0.8,0.8,2,0.8,2.8,0.1c0,0,0,0,0.1-0.1c0.4-0.6,0.5-1.2,0.5-1.9c0-0.7-0.1-1.3-0.5-1.9
	c-0.3-0.5-0.9-0.7-1.5-0.7s-1.1,0.2-1.4,0.6C67.9,82.2,67.7,82.9,67.8,83.5L67.8,83.5z"/>
<path class="st4" d="M75.3,83.5c0.2-0.3,0.5-0.6,0.8-0.9l2.1-2.2h1.2l-2.6,2.7l2.8,3.7h-1.2l-2.3-3l-0.7,0.6v2.4h-1v-9.2h1v4.8
	C75.3,82.7,75.3,83,75.3,83.5z"/>
<path class="st4" d="M83.4,86.9c-0.8,0-1.6-0.3-2.2-0.9c-0.6-0.7-0.9-1.5-0.8-2.4c0-0.9,0.2-1.8,0.8-2.5c0.5-0.6,1.3-0.9,2.1-0.9
	c0.7,0,1.4,0.3,1.9,0.8c0.5,0.6,0.7,1.3,0.7,2.1v0.6h-4.4c0,0.6,0.2,1.2,0.6,1.7c0.4,0.4,1,0.6,1.5,0.6c0.7,0,1.4-0.1,2.1-0.4v0.9
	c-0.3,0.1-0.7,0.2-1,0.3C84.1,86.8,83.7,86.9,83.4,86.9z M83.1,81c-0.5,0-0.9,0.2-1.2,0.5c-0.3,0.4-0.5,0.9-0.5,1.4h3.4
	c0-0.5-0.1-1-0.4-1.4C84,81.1,83.5,81,83.1,81z"/>
<path class="st4" d="M91.8,86.8v-4.2c0-0.4-0.1-0.8-0.4-1.2c-0.3-0.3-0.7-0.5-1.1-0.4c-0.5,0-1.1,0.1-1.5,0.5
	c-0.4,0.5-0.5,1.2-0.5,1.8v3.4h-1v-6.4h0.8l0.2,0.9l0,0c0.2-0.3,0.5-0.6,0.8-0.7c0.4-0.2,0.8-0.3,1.2-0.3c0.6,0,1.3,0.2,1.8,0.6
	c0.4,0.5,0.6,1.1,0.6,1.8v4.2L91.8,86.8z"/>
<g>
	<path class="st5" d="M40.2,52.3c0.7,0,1.4,0.2,1.9,0.6c0.5,0.4,0.7,1,0.7,1.7S42.6,56,42,56.5s-1.3,0.7-2.1,0.7
		c-0.7,0-1.4-0.1-2-0.4V56c0.3,0.2,0.6,0.3,0.9,0.4c0.4,0.1,0.7,0.1,1.1,0.1c0.5,0,1-0.1,1.4-0.4c0.4-0.3,0.6-0.8,0.5-1.3
		c0-1.1-0.7-1.6-2-1.6c-0.5,0-0.9,0.1-1.3,0.2L38,53.1l0.3-3.6h3.8v0.8h-3L39,52.4C39.4,52.3,39.8,52.3,40.2,52.3z"/>
	<path class="st5" d="M47.2,57h-0.9v-5.5c0-0.5,0-0.9,0-1.3l-0.2,0.2l-1.3,1l-0.5-0.6l2-1.6H47L47.2,57z"/>
	<path class="st5" d="M53.6,57h-0.9v-5.5c0-0.5,0-0.9,0-1.3l-0.2,0.2l-1.3,1l-0.5-0.6l2-1.6h0.7L53.6,57z"/>
	<path class="st5" d="M61.5,57h-5.1v-0.8l2-2c0.4-0.4,0.8-0.9,1.2-1.3c0.2-0.2,0.3-0.5,0.4-0.8c0.1-0.3,0.2-0.5,0.2-0.8
		c0-0.4-0.1-0.7-0.4-1c-0.3-0.2-0.6-0.4-1-0.4c-0.3,0-0.6,0.1-0.9,0.2c-0.4,0.1-0.7,0.3-1,0.6l-0.5-0.6c0.6-0.6,1.5-0.9,2.3-0.9
		c0.6,0,1.2,0.2,1.7,0.6c0.4,0.4,0.6,0.9,0.6,1.5c0,0.5-0.1,1-0.4,1.5c-0.4,0.7-1,1.3-1.5,1.8l-1.7,1.6l0,0h4L61.5,57z"/>
	<path class="st5" d="M65,52.3c0.7,0,1.4,0.2,1.9,0.6c0.5,0.4,0.7,1,0.7,1.7s-0.2,1.4-0.8,1.9c-0.6,0.5-1.3,0.7-2.1,0.7
		c-0.7,0-1.4-0.1-2-0.4V56c0.3,0.2,0.6,0.3,0.9,0.4c0.4,0.1,0.7,0.1,1.1,0.1c0.5,0,1-0.1,1.4-0.4c0.4-0.3,0.6-0.8,0.5-1.3
		c0-1.1-0.7-1.6-2-1.6c-0.5,0-0.9,0.1-1.3,0.2l-0.5-0.3l0.3-3.6H67v0.8h-3l-0.2,2.3C64.2,52.3,64.6,52.3,65,52.3z"/>
	<path class="st5" d="M73.1,56.2L73.1,56.2c-0.4,0.6-1.1,0.9-1.8,0.9c-0.7,0-1.3-0.3-1.8-0.8c-0.5-0.6-0.7-1.4-0.7-2.2
		c-0.1-0.8,0.2-1.6,0.6-2.2c0.4-0.5,1.1-0.8,1.8-0.8c0.7,0,1.4,0.3,1.8,0.9h0.1v-0.4v-0.4v-2.4H74V57h-0.7L73.1,56.2z M71.4,56.4
		c0.5,0,1-0.1,1.3-0.5c0.3-0.5,0.5-1,0.4-1.6v-0.2c0.1-0.6-0.1-1.2-0.4-1.8c-0.3-0.4-0.8-0.5-1.3-0.5s-0.9,0.2-1.2,0.6
		c-0.3,0.5-0.4,1.1-0.4,1.7c0,0.6,0.1,1.2,0.4,1.7C70.5,56.2,70.9,56.4,71.4,56.4z"/>
	<path class="st5" d="M78.7,57h-0.9v-5.5c0-0.5,0-0.9,0-1.3l-0.2,0.2l-1.3,1l-0.5-0.6l2-1.6h0.7L78.7,57z"/>
	<path class="st5" d="M84.9,57H84v-5.5c0-0.5,0-0.9,0-1.3l-0.2,0.2l-1.3,1L82,50.8l2-1.6h0.7L84.9,57z"/>
	<path class="st5" d="M90.6,57.1c-0.7,0-1.5-0.3-2-0.8c-0.5-0.6-0.8-1.4-0.7-2.2c0-0.8,0.2-1.6,0.7-2.2c0.4-0.5,1.1-0.8,1.8-0.8
		c0.7,0,1.3,0.2,1.7,0.7c0.4,0.5,0.7,1.2,0.6,1.9v0.6h-4c0,0.6,0.2,1.1,0.5,1.5c0.4,0.4,0.9,0.6,1.4,0.5c0.6,0,1.3-0.1,1.8-0.4v0.8
		c-0.3,0.1-0.6,0.2-0.9,0.3C91.3,57.1,91,57.1,90.6,57.1z M90.4,51.8c-0.4,0-0.8,0.1-1.1,0.5c-0.3,0.4-0.5,0.8-0.5,1.3h3
		c0-0.5-0.1-0.9-0.4-1.3C91.2,52,90.8,51.8,90.4,51.8z"/>
	<path class="st5" d="M99,53.1c0.1,1-0.1,2.1-0.6,3c-0.7,1.1-2.2,1.3-3.2,0.6c-0.2-0.2-0.4-0.4-0.6-0.6c-0.5-0.9-0.7-2-0.7-3
		c-0.1-1,0.1-2.1,0.6-3c0.7-1.1,2.2-1.3,3.3-0.6c0.2,0.2,0.4,0.3,0.6,0.6C98.9,51,99.1,52.1,99,53.1z M94.8,53.1
		c-0.1,0.8,0.1,1.7,0.4,2.5c0.4,0.7,1.2,1,1.9,0.6c0.3-0.1,0.5-0.4,0.6-0.6c0.3-0.8,0.4-1.6,0.4-2.5c0.1-0.8-0.1-1.7-0.4-2.4
		c-0.4-0.7-1.2-1-1.9-0.6c-0.3,0.1-0.5,0.4-0.6,0.6C94.9,51.4,94.7,52.3,94.8,53.1z"/>
	<path class="st5" d="M102.8,57.1c-0.7,0-1.4-0.2-1.9-0.8s-0.8-1.4-0.7-2.2c-0.1-0.8,0.2-1.6,0.7-2.2c0.5-0.5,1.2-0.8,2-0.8
		c0.3,0,0.6,0,0.8,0.1c0.2,0,0.4,0.1,0.7,0.2l-0.3,0.8c-0.2-0.1-0.4-0.1-0.6-0.2c-0.2,0-0.4-0.1-0.6-0.1c-1.2,0-1.8,0.8-1.8,2.2
		c0,0.6,0.1,1.2,0.4,1.6c0.3,0.4,0.8,0.6,1.3,0.6s1-0.1,1.5-0.3v0.8C103.8,57,103.3,57.1,102.8,57.1z"/>
	<path class="st5" d="M110.3,57h-5.1v-0.8l2-2c0.4-0.4,0.8-0.9,1.2-1.3c0.2-0.2,0.3-0.5,0.4-0.8s0.2-0.5,0.2-0.8
		c0-0.4-0.1-0.7-0.4-1c-0.3-0.2-0.6-0.4-1-0.4c-0.3,0-0.6,0.1-0.9,0.2c-0.4,0.1-0.7,0.3-1,0.6l-0.5-0.6c0.6-0.6,1.5-0.9,2.3-0.9
		c0.6,0,1.2,0.2,1.7,0.6c0.4,0.4,0.6,0.9,0.6,1.5c0,0.5-0.1,1-0.4,1.5c-0.4,0.7-1,1.3-1.5,1.8l-1.6,1.6l0,0h4L110.3,57z"/>
	<path class="st5" d="M116.2,51.1c0,0.4-0.1,0.9-0.4,1.2s-0.7,0.6-1.2,0.6l0,0c0.5,0,1,0.2,1.4,0.6c0.3,0.3,0.5,0.8,0.4,1.2
		c0,0.7-0.2,1.3-0.8,1.7c-0.6,0.4-1.4,0.6-2.2,0.6c-0.4,0-0.8,0-1.1-0.1c-0.3-0.1-0.7-0.2-1-0.3v-0.8c0.7,0.3,1.4,0.5,2.2,0.5
		c1.3,0,2-0.5,2-1.6c0-0.9-0.7-1.4-2.2-1.4h-0.8v-0.8h0.8c0.5,0,1-0.1,1.4-0.4c0.4-0.3,0.5-0.7,0.5-1.1c0-0.3-0.1-0.7-0.4-0.9
		s-0.7-0.3-1.1-0.3c-0.3,0-0.7,0-1,0.1c-0.4,0.1-0.7,0.3-1,0.5l-0.4-0.6c0.3-0.3,0.7-0.5,1.1-0.6s0.9-0.2,1.3-0.2
		c0.6,0,1.2,0.1,1.8,0.5C116,50,116.3,50.5,116.2,51.1z"/>
	<path class="st5" d="M120.9,57H120v-5.5c0-0.5,0-0.9,0-1.3l-0.2,0.2l-1.3,1l-0.5-0.6l2-1.6h0.7L120.9,57z"/>
	<path class="st5" d="M128.2,56.2L128.2,56.2c-0.4,0.6-1.1,0.9-1.8,0.9c-0.7,0-1.3-0.3-1.8-0.8c-0.5-0.6-0.7-1.4-0.6-2.2
		c-0.1-0.8,0.2-1.6,0.6-2.2c0.4-0.5,1.1-0.8,1.8-0.8c0.7,0,1.4,0.3,1.8,0.9h0.1v-0.4v-0.4v-2.4h0.9V57h-0.7L128.2,56.2z M126.4,56.4
		c0.5,0,1-0.1,1.3-0.5c0.3-0.5,0.5-1,0.4-1.6v-0.2c0.1-0.6-0.1-1.2-0.4-1.8c-0.3-0.4-0.8-0.6-1.3-0.5c-0.5,0-0.9,0.2-1.2,0.6
		c-0.3,0.5-0.4,1.1-0.4,1.7c0,0.6,0.1,1.2,0.4,1.7C125.5,56.2,125.9,56.4,126.4,56.4L126.4,56.4z"/>
	<path class="st5" d="M133.5,51.9H132V57h-0.9v-5.1h-1v-0.4l1-0.3v-0.3c0-1.4,0.6-2.1,1.9-2.1c0.4,0,0.7,0.1,1.1,0.2l-0.2,0.7
		c-0.3-0.1-0.6-0.2-0.9-0.2c-0.3,0-0.6,0.1-0.7,0.3c-0.2,0.3-0.3,0.7-0.2,1.1v0.4h1.5L133.5,51.9z"/>
	<path class="st5" d="M136.8,57.1c-0.7,0-1.4-0.2-1.9-0.8s-0.7-1.4-0.7-2.2c-0.1-0.8,0.2-1.6,0.7-2.2c0.5-0.5,1.2-0.8,2-0.8
		c0.3,0,0.6,0,0.8,0.1c0.2,0,0.4,0.1,0.7,0.2l-0.3,0.8c-0.2-0.1-0.4-0.1-0.6-0.2c-0.2,0-0.4-0.1-0.6-0.1c-1.2,0-1.8,0.8-1.8,2.2
		c0,0.6,0.1,1.2,0.4,1.6c0.3,0.4,0.8,0.6,1.3,0.6s1-0.1,1.5-0.3v0.8C137.9,57,137.3,57.1,136.8,57.1z"/>
	<path class="st5" d="M145.6,53.7c-0.1-1.2,0.2-2.4,0.9-3.4c0.6-0.8,1.6-1.2,2.6-1.1c0.3,0,0.6,0,0.9,0.1V50
		c-0.3-0.1-0.6-0.1-0.9-0.1c-0.7,0-1.4,0.2-1.9,0.8c-0.5,0.7-0.8,1.6-0.7,2.4h0.1c0.4-0.6,1.1-1,1.8-0.9c0.6,0,1.2,0.2,1.6,0.6
		c0.4,0.5,0.6,1.1,0.6,1.7c0,0.7-0.2,1.4-0.7,1.9s-1.1,0.7-1.8,0.7s-1.4-0.3-1.9-0.9C145.8,55.5,145.5,54.6,145.6,53.7z M148.2,56.4
		c0.4,0,0.9-0.1,1.2-0.5s0.5-0.9,0.4-1.4c0-0.4-0.1-0.9-0.4-1.2c-0.3-0.3-0.7-0.5-1.1-0.4c-0.3,0-0.6,0.1-0.9,0.2
		c-0.3,0.1-0.5,0.3-0.6,0.5c-0.2,0.2-0.2,0.5-0.2,0.7c0,0.3,0.1,0.7,0.2,1c0.1,0.3,0.3,0.6,0.6,0.8
		C147.5,56.3,147.8,56.4,148.2,56.4L148.2,56.4z"/>
	<path class="st5" d="M139.5,53.7c-0.1-1.2,0.2-2.4,0.9-3.4c0.6-0.8,1.6-1.2,2.6-1.1c0.3,0,0.6,0,0.9,0.1V50
		c-0.3-0.1-0.6-0.1-0.9-0.1c-0.7,0-1.4,0.2-1.9,0.8c-0.5,0.7-0.8,1.6-0.7,2.4h0.1c0.4-0.6,1.1-1,1.8-0.9c0.6,0,1.2,0.2,1.6,0.6
		c0.4,0.5,0.6,1.1,0.6,1.7c0,0.7-0.2,1.4-0.7,1.9s-1.1,0.7-1.8,0.7s-1.4-0.3-1.9-0.9C139.6,55.5,139.4,54.6,139.5,53.7z M142.1,56.4
		c0.4,0,0.9-0.1,1.2-0.5s0.5-0.9,0.4-1.4c0-0.4-0.1-0.9-0.4-1.2c-0.3-0.3-0.7-0.5-1.1-0.4c-0.3,0-0.6,0.1-0.9,0.2
		c-0.3,0.1-0.5,0.3-0.6,0.5c-0.2,0.2-0.2,0.5-0.2,0.7c0,0.3,0.1,0.7,0.2,1c0.1,0.3,0.3,0.6,0.6,0.8
		C141.4,56.3,141.7,56.4,142.1,56.4L142.1,56.4z"/>
	<path class="st5" d="M154.2,49.2c0.6,0,1.2,0.1,1.7,0.5c0.4,0.3,0.6,0.8,0.6,1.4c0,0.4-0.1,0.7-0.4,1c-0.3,0.4-0.7,0.7-1.1,0.9
		c0.5,0.2,1,0.5,1.3,0.9c0.3,0.3,0.4,0.7,0.4,1.2c0,0.6-0.2,1.2-0.7,1.5c-0.5,0.4-1.2,0.6-1.8,0.6c-0.7,0-1.3-0.2-1.9-0.5
		c-0.5-0.4-0.7-0.9-0.7-1.5c0.1-1,0.7-1.8,1.6-2.1c-0.4-0.2-0.7-0.5-1-0.9c-0.2-0.3-0.3-0.7-0.3-1.1c0-0.5,0.2-1,0.6-1.3
		C153.1,49.3,153.7,49.1,154.2,49.2z M152.6,55.1c0,0.4,0.1,0.8,0.4,1c0.4,0.3,0.8,0.4,1.2,0.3c0.4,0,0.9-0.1,1.2-0.4
		c0.3-0.2,0.5-0.6,0.4-1c0-0.3-0.2-0.7-0.4-0.9c-0.4-0.3-0.9-0.6-1.4-0.8c-0.4,0.2-0.8,0.4-1.1,0.8
		C152.7,54.4,152.6,54.8,152.6,55.1z M154.2,49.9c-0.4,0-0.7,0.1-1,0.3c-0.2,0.2-0.4,0.5-0.4,0.8s0.1,0.6,0.3,0.8
		c0.3,0.3,0.7,0.5,1.1,0.7c0.4-0.1,0.8-0.4,1.1-0.7c0.2-0.2,0.3-0.5,0.3-0.8s-0.1-0.6-0.4-0.8C155,50,154.6,49.9,154.2,49.9
		L154.2,49.9z"/>
	<path class="st5" d="M162.9,52.6c0,3-1.2,4.5-3.5,4.5c-0.3,0-0.7,0-1-0.1v-0.8c0.3,0.1,0.7,0.1,1,0.1c0.7,0.1,1.5-0.2,2-0.8
		c0.5-0.7,0.7-1.6,0.7-2.4H162c-0.2,0.3-0.5,0.5-0.8,0.7s-0.7,0.2-1.1,0.2c-0.6,0-1.2-0.2-1.6-0.6c-0.4-0.5-0.6-1.1-0.6-1.7
		c0-0.7,0.2-1.4,0.7-1.9c0.9-0.8,2.2-0.9,3.1-0.3c0.4,0.3,0.7,0.7,0.9,1.2C162.9,51.3,163,52,162.9,52.6z M160.4,49.9
		c-0.4,0-0.9,0.2-1.2,0.5c-0.3,0.4-0.4,0.9-0.4,1.3c0,0.4,0.1,0.9,0.4,1.2c0.3,0.3,0.7,0.5,1.2,0.4c0.3,0,0.6-0.1,0.9-0.2
		c0.3-0.1,0.5-0.3,0.6-0.5s0.2-0.5,0.2-0.7c0-0.3-0.1-0.7-0.2-1c-0.1-0.3-0.3-0.6-0.6-0.7C161,50,160.7,49.9,160.4,49.9z"/>
	<path class="st5" d="M167.4,57.1c-0.7,0-1.4-0.2-1.9-0.8s-0.7-1.4-0.7-2.2c-0.1-0.8,0.2-1.6,0.7-2.2c0.5-0.5,1.2-0.8,2-0.8
		c0.3,0,0.6,0,0.8,0.1c0.2,0,0.4,0.1,0.7,0.2l-0.3,0.8c-0.2-0.1-0.4-0.1-0.6-0.2c-0.2,0-0.4-0.1-0.6-0.1c-1.2,0-1.8,0.8-1.8,2.2
		c0,0.6,0.1,1.2,0.4,1.6c0.3,0.4,0.8,0.6,1.3,0.6s1-0.1,1.5-0.3v0.8C168.4,57,167.9,57.1,167.4,57.1z"/>
	<path class="st5" d="M182.2,57l3.2-6.9h-4.2v-0.8h5.1V50l-3.2,7H182.2z"/>
	<path class="st5" d="M173.5,57.1c-0.7,0-1.4-0.2-1.9-0.8s-0.7-1.4-0.7-2.2c-0.1-0.8,0.2-1.6,0.7-2.2c0.5-0.5,1.2-0.8,2-0.8
		c0.3,0,0.6,0,0.8,0.1c0.2,0,0.4,0.1,0.7,0.2l-0.3,0.7c-0.2-0.1-0.4-0.1-0.6-0.2c-0.2,0-0.4-0.1-0.6-0.1c-1.2,0-1.8,0.8-1.8,2.3
		c0,0.6,0.1,1.2,0.4,1.6c0.3,0.4,0.8,0.6,1.3,0.6s1-0.1,1.5-0.3v0.8C174.4,57,174,57.1,173.5,57.1z"/>
	<path class="st5" d="M178.6,57.1c-0.7,0-1.4-0.2-1.9-0.8s-0.7-1.4-0.7-2.2c-0.1-0.8,0.2-1.6,0.7-2.2c0.5-0.5,1.2-0.8,2-0.8
		c0.3,0,0.6,0,0.8,0.1c0.2,0,0.4,0.1,0.7,0.2l-0.3,0.8c-0.2-0.1-0.4-0.1-0.6-0.2c-0.2,0-0.4-0.1-0.6-0.1c-1.2,0-1.8,0.8-1.8,2.2
		c0,0.6,0.1,1.2,0.4,1.6c0.3,0.4,0.8,0.6,1.3,0.6s1-0.1,1.5-0.3v0.8C179.6,57,179.1,57.1,178.6,57.1z"/>
	<path class="st5" d="M191.2,55.2H190V57h-0.8v-1.8h-3.8v-0.8l3.7-5.2h0.9v5.2h1.1L191.2,55.2z M189.2,54.4v-2.6
		c0-0.5,0-1.1,0.1-1.7l0,0c-0.1,0.3-0.3,0.6-0.5,0.8l-2.4,3.4L189.2,54.4z"/>
	<path class="st5" d="M194.5,49.2c0.6,0,1.2,0.1,1.7,0.5c0.4,0.3,0.6,0.8,0.6,1.4c0,0.4-0.1,0.7-0.4,1c-0.3,0.4-0.7,0.7-1.1,0.9
		c0.5,0.2,1,0.5,1.3,0.9c0.3,0.3,0.4,0.7,0.4,1.2c0,0.6-0.2,1.2-0.7,1.5c-0.5,0.4-1.2,0.6-1.8,0.6c-0.7,0-1.3-0.2-1.9-0.5
		c-0.5-0.4-0.7-0.9-0.7-1.5c0.1-1,0.7-1.8,1.6-2.1c-0.4-0.2-0.7-0.5-1-0.9c-0.2-0.3-0.3-0.7-0.3-1.1c0-0.5,0.2-1,0.6-1.3
		C193.3,49.3,193.9,49.1,194.5,49.2z M192.8,55.1c0,0.4,0.1,0.8,0.4,1c0.4,0.3,0.8,0.4,1.2,0.3c0.4,0,0.9-0.1,1.2-0.4
		c0.3-0.2,0.5-0.6,0.4-1c0-0.3-0.2-0.7-0.4-0.9c-0.4-0.3-0.9-0.6-1.4-0.8c-0.4,0.2-0.8,0.4-1.1,0.8
		C192.9,54.4,192.8,54.8,192.8,55.1z M194.5,49.9c-0.4,0-0.7,0.1-1,0.3s-0.4,0.5-0.4,0.8s0.1,0.6,0.3,0.8c0.3,0.3,0.7,0.5,1.1,0.7
		c0.4-0.1,0.8-0.4,1.1-0.7c0.2-0.2,0.3-0.5,0.3-0.8s-0.1-0.6-0.4-0.8C195.2,50,194.9,49.9,194.5,49.9L194.5,49.9z"/>
	<path class="st5" d="M198.2,53.7c-0.1-1.2,0.2-2.4,0.9-3.4c0.6-0.8,1.6-1.2,2.6-1.1c0.3,0,0.6,0,0.9,0.1V50
		c-0.3-0.1-0.6-0.1-0.9-0.1c-0.7,0-1.4,0.2-1.9,0.8c-0.5,0.7-0.8,1.6-0.7,2.4h0.1c0.4-0.6,1.1-1,1.8-0.9c0.6,0,1.2,0.2,1.6,0.6
		c0.4,0.5,0.6,1.1,0.6,1.7c0,0.7-0.2,1.4-0.7,1.9s-1.1,0.7-1.8,0.7s-1.4-0.3-1.9-0.9C198.4,55.5,198.1,54.6,198.2,53.7z M200.8,56.4
		c0.4,0,0.9-0.1,1.2-0.5s0.5-0.9,0.4-1.4c0-0.4-0.1-0.9-0.4-1.2c-0.3-0.3-0.7-0.5-1.1-0.4c-0.3,0-0.6,0.1-0.9,0.2
		c-0.3,0.1-0.5,0.3-0.6,0.5c-0.2,0.2-0.2,0.5-0.2,0.7c0,0.3,0.1,0.7,0.2,1c0.1,0.3,0.3,0.6,0.6,0.8
		C200.2,56.3,200.5,56.4,200.8,56.4L200.8,56.4z"/>
	<path class="st5" d="M208.6,56.2L208.6,56.2c-0.4,0.6-1.1,0.9-1.8,0.9s-1.3-0.3-1.8-0.8c-0.5-0.6-0.7-1.4-0.7-2.2
		c-0.1-0.8,0.2-1.6,0.6-2.2c0.4-0.5,1.1-0.8,1.8-0.8s1.4,0.3,1.8,0.9h0.1v-0.4v-0.4v-2.3h0.9V57h-0.7L208.6,56.2z M206.9,56.4
		c0.5,0,1-0.1,1.3-0.5c0.3-0.5,0.4-1,0.4-1.6v-0.2c0.1-0.6-0.1-1.2-0.4-1.8c-0.3-0.4-0.8-0.6-1.3-0.5c-0.5,0-0.9,0.2-1.2,0.6
		c-0.3,0.5-0.4,1.1-0.4,1.7c0,0.6,0.1,1.2,0.4,1.7C206,56.2,206.4,56.4,206.9,56.4L206.9,56.4z"/>
	<path class="st5" d="M213.4,52.3c0.7,0,1.4,0.2,1.9,0.6c0.5,0.4,0.7,1,0.7,1.7s-0.2,1.4-0.8,1.9s-1.3,0.7-2.1,0.7
		c-0.7,0-1.4-0.1-2-0.4V56c0.3,0.2,0.6,0.3,0.9,0.4c0.4,0.1,0.7,0.1,1.1,0.1c0.5,0,1-0.1,1.4-0.4c0.4-0.3,0.6-0.8,0.5-1.3
		c0-1.1-0.7-1.6-2-1.6c-0.5,0-0.9,0.1-1.3,0.2l-0.5-0.3l0.3-3.6h3.9v0.8h-3.1l-0.2,2.3C212.6,52.3,213,52.3,213.4,52.3z"/>
	<path class="st5" d="M221.9,51.1c0,0.4-0.1,0.9-0.4,1.2c-0.3,0.3-0.7,0.6-1.2,0.6l0,0c0.5,0,1,0.2,1.4,0.6c0.3,0.3,0.5,0.8,0.4,1.2
		c0,0.7-0.2,1.3-0.8,1.7s-1.4,0.6-2.2,0.6c-0.4,0-0.8,0-1.1-0.1s-0.7-0.2-1-0.3v-0.8c0.7,0.3,1.4,0.5,2.1,0.5c1.3,0,2-0.5,2-1.6
		c0-0.9-0.7-1.4-2.2-1.4h-0.8v-0.8h0.8c0.5,0,1-0.1,1.4-0.4c0.4-0.3,0.5-0.7,0.5-1.1c0-0.3-0.1-0.7-0.4-0.9
		c-0.3-0.2-0.7-0.3-1.1-0.3c-0.3,0-0.7,0-1,0.1c-0.4,0.1-0.7,0.3-1,0.5l-0.4-0.6c0.3-0.3,0.7-0.5,1.1-0.6c0.4-0.1,0.9-0.2,1.3-0.2
		c0.6,0,1.2,0.1,1.8,0.5C221.7,50,222,50.5,221.9,51.1z"/>
	<path class="st5" d="M227.7,56.2L227.7,56.2c-0.4,0.6-1.1,0.9-1.8,0.9s-1.3-0.3-1.8-0.8c-0.5-0.6-0.7-1.4-0.7-2.2
		c-0.1-0.8,0.2-1.6,0.6-2.2c0.4-0.5,1.1-0.8,1.8-0.8s1.4,0.3,1.8,0.9h0.1v-0.4v-0.4v-2.3h0.9V57h-0.7L227.7,56.2z M225.9,56.4
		c0.5,0,1-0.1,1.3-0.5c0.3-0.5,0.4-1,0.4-1.6v-0.2c0.1-0.6-0.1-1.2-0.4-1.8c-0.3-0.4-0.8-0.6-1.3-0.5c-0.5,0-0.9,0.2-1.2,0.6
		c-0.3,0.5-0.4,1.1-0.4,1.7c0,0.6,0.1,1.2,0.4,1.7C225,56.2,225.4,56.4,225.9,56.4L225.9,56.4z"/>
</g>
<title>tutorial_02</title>
<polygon class="st6" points="243.6,70.2 233.1,60.9 234.4,74.8 237.7,73.1 240.9,79.4 243.5,78.1 240.3,71.9 "/>
</svg>
